<svg width="115" height="19" viewBox="0 0 115 19" fill="none" xmlns="http://www.w3.org/2000/svg">
<rect width="18.1579" height="18.1579" rx="2" fill="#E8A641"/>
<path d="M9.07944 12.2857L12.7665 14.5263L11.7881 10.3033L15.0456 7.46195L10.7559 7.09551L9.07944 3.11279L7.40295 7.09551L3.11328 7.46195L6.37081 10.3033L5.39236 14.5263L9.07944 12.2857Z" fill="white"/>
<rect x="24.2109" width="18.1579" height="18.1579" rx="2" fill="#E8A641"/>
<path d="M33.2904 12.2857L36.9775 14.5263L35.999 10.3033L39.2565 7.46195L34.9669 7.09551L33.2904 3.11279L31.6139 7.09551L27.3242 7.46195L30.5817 10.3033L29.6033 14.5263L33.2904 12.2857Z" fill="white"/>
<rect x="72.6309" width="18.1579" height="18.1579" rx="2" fill="#E8A641"/>
<path d="M81.7103 12.2857L85.3974 14.5263L84.4189 10.3033L87.6765 7.46195L83.3868 7.09551L81.7103 3.11279L80.0338 7.09551L75.7441 7.46195L79.0017 10.3033L78.0232 14.5263L81.7103 12.2857Z" fill="white"/>
<rect x="48.4219" width="18.1579" height="18.1579" rx="2" fill="#E8A641"/>
<path d="M57.5013 12.2857L61.1884 14.5263L60.21 10.3033L63.4675 7.46195L59.1778 7.09551L57.5013 3.11279L55.8248 7.09551L51.5352 7.46195L54.7927 10.3033L53.8142 14.5263L57.5013 12.2857Z" fill="white"/>
<rect x="96.8418" width="18.1579" height="18.1579" rx="2" fill="#E8A641"/>
<path d="M105.921 12.2857L109.608 14.5263L108.63 10.3033L111.887 7.46195L107.598 7.09551L105.921 3.11279L104.245 7.09551L99.9551 7.46195L103.213 10.3033L102.234 14.5263L105.921 12.2857Z" fill="white"/>
</svg>
